<svg xmlns="http://www.w3.org/2000/svg" aria-hidden="true" viewBox="0 0 24 24" fill="none">
  <path d="M12 2.75h.01a2 2 0 0 1 1.94 1.52l.28 1.14c.47.16.91.35 1.33.58l1.02-.61a2 2 0 0 1 2.44.3l.01.01a2 2 0 0 1 .3 2.44l-.61 1.02c.23.42.42.86.58 1.33l1.14.28a2 2 0 0 1 1.52 1.94v.02a2 2 0 0 1-1.52 1.94l-1.14.28c-.16.47-.35.91-.58 1.33l.61 1.02a2 2 0 0 1-.3 2.44l-.01.01a2 2 0 0 1-2.44.3l-1.02-.61c-.42.23-.86.42-1.33.58l-.28 1.14A2 2 0 0 1 12.01 22H12a2 2 0 0 1-1.94-1.52l-.28-1.14a7.85 7.85 0 0 1-1.33-.58l-1.02.61a2 2 0 0 1-2.44-.3l-.01-.01a2 2 0 0 1-.3-2.44l.61-1.02a7.85 7.85 0 0 1-.58-1.33l-1.14-.28a2 2 0 0 1-1.52-1.94v-.02a2 2 0 0 1 1.52-1.94l1.14-.28c.16-.47.35-.91.58-1.33l-.61-1.02a2 2 0 0 1 .3-2.44l.01-.01a2 2 0 0 1 2.44-.3l1.02.61c.42-.23.86-.42 1.33-.58l.28-1.14A2 2 0 0 1 12 2.75Z" stroke="#ededed" stroke-width="1.6" stroke-linejoin="round"/>
  <circle cx="12" cy="12.4" r="3.1" stroke="#ededed" stroke-width="1.6"/>
</svg>
